<?xml version="1.0" encoding="utf-8"?>
<!-- Generator: Adobe Illustrator 16.0.0, SVG Export Plug-In . SVG Version: 6.00 Build 0)  -->
<!DOCTYPE svg PUBLIC "-//W3C//DTD SVG 1.1//EN" "http://www.w3.org/Graphics/SVG/1.1/DTD/svg11.dtd">
<svg version="1.1" id="Capa_1" xmlns="http://www.w3.org/2000/svg" xmlns:xlink="http://www.w3.org/1999/xlink" x="0px" y="0px"
	 width="32px" height="32px" viewBox="0 0 32 32" enable-background="new 0 0 32 32" xml:space="preserve">
<path fill="#09A3B2" d="M29,18c2.281,0,1,6-1,6c1,0,0,5-2,5c0,2-2,3-4,3c-8.448,0-5.477-2.114-14-3V13c7.529-2.258,15-7.92,15-13
	c1.656,0,6,2,0,12c0,0,5,0,6,0C32,12,31,18,29,18z M6,13v16h2v1H4c-1.1,0-2-1.35-2-3V15c0-1.65,0.9-3,2-3h4v1H6z"/>
</svg>
